<svg width="488" height="370" viewBox="0 0 488 370" fill="none" xmlns="http://www.w3.org/2000/svg">
<path opacity="0.1" d="M244 364.4C378.757 364.4 488 344.086 488 319.027C488 293.968 378.757 273.654 244 273.654C109.243 273.654 0 293.968 0 319.027C0 344.086 109.243 364.4 244 364.4Z" fill="#F95B06"/>
<path d="M324.15 324.257C324.478 322.886 325.129 321.617 326.047 320.562C326.964 319.506 328.12 318.696 329.414 318.202C330.708 317.707 332.1 317.543 333.47 317.724C334.839 317.906 336.145 318.426 337.273 319.241L337.621 319.501C345.084 325.219 340.654 335.708 337.621 335.945C334.588 336.182 328.753 336.437 328.753 336.437C328.753 336.437 321.879 333.537 324.15 324.257Z" fill="#192534"/>
<path d="M391.479 317.13V319.036C391.479 319.036 361.147 321.179 357.908 321.179H351.846C351.846 321.179 351.757 321.275 351.61 321.448C351.36 321.736 350.936 322.242 350.468 322.871C349.513 324.139 348.376 325.908 348.113 327.376C347.667 329.998 346.016 330.952 346.016 330.952L339.954 329.287L334.106 322.137L333.254 321.298L330.827 318.931L328.753 316.902L328.856 315.762V315.588C329.352 313.139 329.986 310.721 330.756 308.347C330.756 308.283 330.796 308.215 330.819 308.151C332.5 302.989 335.306 296.719 339.347 294.854C339.655 294.712 339.976 294.575 340.32 294.452L340.73 294.306C348.483 291.652 363.132 292.706 363.132 292.706C363.132 292.706 374.319 296.044 375.256 297.476C376.193 298.908 386.796 310.7 386.796 310.7C387.726 311.417 388.584 312.229 389.356 313.121C390.351 314.248 391.274 315.666 391.479 317.13Z" fill="#A5A58D"/>
<path opacity="0.1" d="M327.83 332.862C329.633 332.862 331.095 330.514 331.095 327.618C331.095 324.722 329.633 322.374 327.83 322.374C326.027 322.374 324.565 324.722 324.565 327.618C324.565 330.514 326.027 332.862 327.83 332.862Z" fill="white"/>
<path opacity="0.1" d="M341.355 296.632C341.355 296.632 338.678 300.827 335.85 306.208C335.849 306.222 335.849 306.236 335.85 306.249C335.096 307.681 334.329 309.191 333.598 310.737L333.566 310.81C333.566 310.81 332.018 309.555 330.801 308.333C330.801 308.27 330.841 308.201 330.863 308.137C332.545 302.975 335.351 296.705 339.392 294.84C339.7 294.698 340.021 294.562 340.364 294.439L341.355 296.632Z" fill="black"/>
<path opacity="0.1" d="M333.428 310.695C333.428 310.695 349.982 315.712 353.242 313.555C353.242 313.555 354.411 298.301 346.716 297.348C346.716 297.348 342.287 296.153 341.364 296.892C340.44 297.631 333.428 310.695 333.428 310.695Z" fill="white"/>
<path opacity="0.1" d="M354.875 299.491C354.875 299.491 358.14 312.123 360.473 312.365C362.806 312.606 386.345 312.123 385.417 310.454C384.49 308.785 374.226 298.064 374.226 298.064L354.875 299.491Z" fill="white"/>
<path d="M350.869 322.347C350.869 322.347 355.107 316.651 362.57 322.374C370.032 328.097 365.599 338.581 362.57 338.818C359.541 339.055 353.733 339.297 353.733 339.297C353.733 339.297 344.531 335.43 350.869 322.347Z" fill="#192534"/>
<path d="M394.883 323.797C394.572 322.897 394.083 322.072 393.445 321.375C392.807 320.678 392.034 320.124 391.176 319.748C390.318 319.372 389.393 319.182 388.459 319.189C387.526 319.197 386.604 319.403 385.752 319.793C384.919 320.195 384.129 320.685 383.397 321.257C376.755 326.346 380.72 335.68 383.397 335.895C384.365 335.968 385.654 336.045 386.907 336.114C388.191 336.183 389.472 335.948 390.651 335.425C391.83 334.903 392.875 334.108 393.702 333.102C394.53 332.097 395.118 330.91 395.42 329.633C395.723 328.356 395.731 327.025 395.445 325.744C395.294 325.084 395.106 324.434 394.883 323.797Z" fill="#192534"/>
<path opacity="0.1" d="M352.779 335.721C354.582 335.721 356.044 333.374 356.044 330.477C356.044 327.581 354.582 325.233 352.779 325.233C350.975 325.233 349.513 327.581 349.513 330.477C349.513 333.374 350.975 335.721 352.779 335.721Z" fill="white"/>
<path opacity="0.1" d="M361.869 320.468C361.869 320.468 361.423 313.555 368.632 316.414C375.84 319.273 371.197 322.374 371.197 322.374L361.869 320.468Z" fill="white"/>
<path opacity="0.1" d="M391.479 317.13V318.083L390.315 318.539L387.938 318.083C387.938 318.083 387.429 314.179 389.378 313.067C390.351 314.248 391.274 315.666 391.479 317.13Z" fill="white"/>
<path opacity="0.1" d="M391.479 317.175V319.036C391.479 319.036 361.147 321.179 357.908 321.179H357.882C356.204 320.267 354.527 319.861 353.118 320.468C352.688 320.649 352.285 320.889 351.918 321.179C351.811 321.266 351.708 321.357 351.61 321.448C351.165 321.865 350.781 322.344 350.468 322.871C348.38 326.323 348.826 331.668 348.826 331.668C342.764 333.574 336.47 328.571 336.47 328.571C335.328 325.069 334.262 322.784 333.285 321.275C332.393 319.907 331.581 319.237 330.859 318.908L328.753 316.902L328.856 315.762L345.775 328.339C345.775 328.339 347.408 317.613 351.128 318.329C354.848 319.045 362.32 319.045 362.32 319.045L391.479 317.175Z" fill="black"/>
<path d="M327.83 315.698C327.83 315.698 326.429 319.273 327.83 319.515C329.23 319.756 332.375 316.779 336.457 329.287C336.457 329.287 342.751 334.303 348.813 332.383C348.813 332.383 348.09 323.327 353.118 321.179C358.145 319.031 366.531 329.761 366.531 329.761V332.146L386.35 329.999C386.35 329.999 392.412 325.233 392.18 317.846L362.338 319.752C362.338 319.752 354.875 319.752 351.146 319.036C347.417 318.32 345.793 329.068 345.793 329.068L327.83 315.698Z" fill="#A5A58D"/>
<path d="M243.902 250.511H243.897C237.009 250.511 231.425 256.219 231.425 263.261V263.266C231.425 270.307 237.009 276.016 243.897 276.016H243.902C250.79 276.016 256.374 270.307 256.374 263.266V263.261C256.374 256.219 250.79 250.511 243.902 250.511Z" fill="#192534"/>
<path d="M237.367 296.08C239.04 294.58 240.739 293.052 241.944 291.142C243.05 289.391 243.701 287.389 244.312 285.4C246.058 279.718 247.561 273.965 248.822 268.14C241.957 267.069 236.832 260.871 230.118 259.052C229.958 259.006 224.823 290.544 224.449 293.426C224.141 295.807 221.482 307.175 224.511 307.239C226.13 307.275 229.512 303.135 230.707 302.045L237.367 296.08Z" fill="#3F3D56"/>
<path opacity="0.1" d="M237.367 296.08C239.04 294.58 240.739 293.052 241.944 291.142C243.05 289.391 243.701 287.389 244.312 285.4C246.058 279.718 247.561 273.965 248.822 268.14C241.957 267.069 236.832 260.871 230.118 259.052C229.958 259.006 224.823 290.544 224.449 293.426C224.141 295.807 221.482 307.175 224.511 307.239C226.13 307.275 229.512 303.135 230.707 302.045L237.367 296.08Z" fill="black"/>
<path d="M152.529 216.506C151.771 216.625 150.968 216.684 150.343 217.135C149.451 217.774 149.224 218.959 148.8 219.99C148.243 221.313 147.301 222.427 146.101 223.182C145.08 223.82 143.835 224.249 143.224 225.298C142.879 226.004 142.714 226.789 142.747 227.578C142.666 229.914 142.769 232.254 143.054 234.573C143.197 235.736 143.385 236.922 143.148 238.066C142.876 239.402 142.055 240.538 141.275 241.646C139.401 244.295 137.568 247.205 137.416 250.47C137.34 252.111 137.697 253.794 137.291 255.386C136.573 258.208 133.647 260.051 133.076 262.905C132.906 263.749 132.951 264.643 132.63 265.432C132.068 266.8 130.52 267.548 130.123 268.957C129.824 270.015 130.261 271.132 130.292 272.231C130.337 273.84 129.512 275.327 128.718 276.713L124.074 284.785C122.567 287.402 121.023 290.138 120.769 293.166C120.541 295.852 121.358 298.511 122.254 301.046C124.248 306.678 127.21 312.643 132.674 314.809C135.891 316.086 139.473 315.812 142.912 315.52C147.622 315.123 152.364 314.718 156.909 313.4C159.162 312.748 161.37 311.877 163.645 311.411C165.162 311.106 166.718 310.955 168.182 310.458C169.763 309.877 171.162 308.872 172.232 307.548C173.303 306.225 174.005 304.631 174.266 302.934C176.211 303.718 178.013 301.11 177.736 298.994C177.46 296.878 176.068 295.086 175.506 293.034C174.703 290.202 175.506 287.129 176.844 284.52C178.182 281.912 180.029 279.604 181.488 277.065C183.113 274.221 184.242 271.11 184.824 267.871C185.605 263.498 185.369 259.006 185.128 254.569L184.209 237.61C184.039 234.505 183.848 231.299 182.509 228.49C181.042 225.43 178.365 223.187 175.693 221.148C171.75 218.082 167.615 215.282 163.315 212.767C160.54 211.18 160.737 211.795 158.529 213.679C156.818 215.163 154.744 216.14 152.529 216.506Z" fill="#3F3D56"/>
<path d="M190.026 263.69C186.872 266.234 183.678 268.815 181.251 272.089C178.32 276.071 176.657 280.877 176.487 285.856C176.459 288.187 176.619 290.516 176.965 292.82C177.442 296.582 178.303 300.773 181.403 302.852C183.357 304.161 186.042 304.489 187.376 306.45C187.795 307.066 188.041 307.818 188.531 308.361C189.423 309.346 190.815 309.56 192.1 309.633C194.019 309.743 195.945 309.682 197.854 309.451C200.035 309.181 202.252 308.694 204.411 309.113C208.613 309.92 211.749 313.974 216.009 314.517C219.546 314.973 222.861 312.871 225.823 310.869C228.878 308.803 232.068 306.591 233.723 303.249C235.333 300.002 235.244 296.181 235.119 292.537C234.98 288.492 234.838 284.397 233.781 280.494C233.452 279.472 233.2 278.426 233.027 277.365C232.71 274.629 233.919 271.939 234.811 269.321C236.198 265.34 236.805 260.434 234.048 257.287C232.884 255.956 231.265 255.135 229.623 254.551C222.375 251.888 214.372 252.9 206.936 254.095C199.839 255.194 195.593 259.207 190.026 263.69Z" fill="#3F3D56"/>
<path d="M251.494 247.93C248.621 252.339 245.74 256.781 243.665 261.61C242.251 265.115 241.059 268.71 240.097 272.372C237.233 282.491 234.392 292.829 228.673 301.589C227.852 302.848 226.942 304.156 226.858 305.666C226.777 307.079 227.437 308.402 228.075 309.66C229.414 312.323 230.814 315.014 232.723 317.303C234.633 319.592 236.916 321.325 239.218 323.095C243.996 326.743 249.304 330.61 255.277 330.336C256.512 330.277 257.833 329.985 258.658 329.041C259.483 328.097 259.599 326.793 259.452 325.58C259.006 321.827 256.24 318.876 253.733 316.095C251.226 313.313 248.706 310.062 248.907 306.268C249.063 303.135 251.07 300.463 252.993 298.018C255.192 295.218 257.395 292.423 259.47 289.527C268.44 277.01 274.917 262.778 280.051 248.172C282.215 242.006 284.182 235.531 283.508 229.019C278.602 227.788 268.788 223.674 264.644 227.92C262.133 230.492 260.357 234.304 258.399 237.337L251.494 247.93Z" fill="#FBBEBE"/>
<path d="M292.925 205.115C289.816 210.658 287.383 216.569 285.681 222.717C285.266 224.203 284.896 225.772 285.212 227.277C285.556 228.891 286.631 230.218 287.443 231.641C288.255 233.064 288.826 234.865 288.09 236.333C284.61 236.612 281.162 235.64 277.799 234.678L267.254 231.668C266.38 231.497 265.56 231.108 264.867 230.538C263.645 229.356 263.739 227.373 263.975 225.676C266.04 211.786 272.673 198.981 275.158 185.169C275.519 183.176 275.898 180.969 277.451 179.697C281.911 176.094 292.01 179.145 294.321 184.362C296.904 190.153 295.847 199.912 292.925 205.115Z" fill="#A5A58D"/>
<path d="M236.475 157.644C236.078 157.854 235.632 158.1 235.511 158.528C235.485 158.762 235.508 158.998 235.581 159.221C235.653 159.444 235.773 159.648 235.931 159.819L240.431 166.294C244.87 172.679 249.317 179.104 254.451 184.927C258.327 189.32 262.572 193.358 267.138 196.993C268.422 198.015 269.792 199.077 270.421 200.614C267.616 192.122 268.114 182.852 271.812 174.726C273.284 171.534 275.229 168.574 276.759 165.401C276.904 165.226 277.002 165.017 277.043 164.792C277.085 164.568 277.07 164.336 276.998 164.12C276.927 163.903 276.802 163.709 276.636 163.557C276.47 163.404 276.268 163.298 276.05 163.248C272.151 161.196 267.887 159.956 264.006 157.867C260.96 156.226 258.207 154.091 255.473 151.989C253.033 150.115 249.786 146.804 246.775 146.015C243.523 145.158 243.652 148.191 242.604 150.721C241.398 153.679 239.234 156.124 236.475 157.644Z" fill="#FBBEBE"/>
<path opacity="0.1" d="M236.475 157.644C236.078 157.854 235.632 158.1 235.511 158.528C235.485 158.762 235.508 158.998 235.581 159.221C235.653 159.444 235.773 159.648 235.931 159.819L240.431 166.294C244.87 172.679 249.317 179.104 254.451 184.927C258.327 189.32 262.572 193.358 267.138 196.993C268.422 198.015 269.792 199.077 270.421 200.614C267.616 192.122 268.114 182.852 271.812 174.726C273.284 171.534 275.229 168.574 276.759 165.401C276.904 165.226 277.002 165.017 277.043 164.792C277.085 164.568 277.07 164.336 276.998 164.12C276.927 163.903 276.802 163.709 276.636 163.557C276.47 163.404 276.268 163.298 276.05 163.248C272.151 161.196 267.887 159.956 264.006 157.867C260.96 156.226 258.207 154.091 255.473 151.989C253.033 150.115 249.786 146.804 246.775 146.015C243.523 145.158 243.652 148.191 242.604 150.721C241.398 153.679 239.234 156.124 236.475 157.644Z" fill="black"/>
<path d="M264.073 183.45C262.035 181.097 259.282 179.542 256.869 177.59C253.399 174.781 250.655 171.16 248.006 167.535C243.144 160.863 238.241 152.691 240.663 144.734C238.09 144.479 235.868 146.64 234.655 148.97C233.442 151.301 232.817 153.955 231.305 156.093C229.008 159.345 225.1 160.859 221.46 162.345C213.459 165.618 205.729 169.545 198.345 174.088C195.378 175.912 192.425 177.868 190.159 180.54C187.733 183.39 186.212 186.924 184.151 190.048C180.136 196.191 174.034 200.801 167.263 203.409C165.032 204.276 162.641 204.951 160.647 206.328C156.374 209.278 154.594 215.161 155.607 220.332C156.619 225.503 160.068 229.908 164.212 233.036C168.356 236.165 173.075 238.012 177.857 239.836C181.866 241.34 185.899 242.775 189.959 244.14C192.945 245.197 195.999 246.044 199.099 246.676C204.804 247.747 210.67 247.483 216.437 248.135C221.71 248.728 226.889 250.091 232.184 250.47C237.479 250.848 243.086 250.128 247.399 246.977C250.829 244.473 253.113 240.693 255.223 236.944C260.7 227.28 265.593 217.28 269.872 207.003C271.134 203.961 282.848 186.733 279.931 184.508C265.242 173.303 270.117 191.106 268.717 189.738C266.843 187.905 265.768 185.406 264.073 183.45Z" fill="#A5A58D"/>
<path d="M245.878 173.144C242.724 166.659 240.592 159.719 238.473 152.815C237.889 150.899 237.3 148.829 237.929 146.932C238.687 144.652 241.114 142.705 240.4 140.42C234.726 142.244 228.138 145.103 227.018 151.082C226.773 152.386 226.817 153.777 226.224 154.953C225.069 157.261 222.125 157.753 219.622 158.145C212.342 159.336 205.107 162.336 200.12 167.886C199.282 168.798 198.492 169.833 197.444 170.517C196.685 170.974 195.879 171.341 195.039 171.611C190.159 173.404 185.141 175.638 182.001 179.856C180.382 182.027 179.347 184.631 177.54 186.646C175.096 189.382 171.496 190.75 168.851 193.299C167.066 194.996 165.795 197.148 164.617 199.323C160.085 207.696 156.762 217.514 159.167 226.766C160.42 231.605 163.181 235.914 164.667 240.684C166.714 247.182 166.513 254.592 170.354 260.178C172.776 263.69 176.523 266.011 180.359 267.762C188.895 271.644 198.273 273.187 207.57 272.24C211.017 271.83 214.441 271.239 217.829 270.471C225.916 268.765 234.088 266.909 241.435 263.051C253.965 256.471 262.98 244.71 271.589 233.31C273.226 231.139 274.877 228.951 276.05 226.47C277.196 224.103 277.888 221.54 278.66 219.023C281.269 210.537 284.94 202.087 284.597 193.204C284.611 192.14 284.405 191.085 283.995 190.107C283.647 189.378 283.102 188.739 282.795 188.005C282.25 186.692 282.496 185.173 282.112 183.801C281.046 179.97 276.121 179.241 272.223 179.272L270.974 201.749C270.782 205.124 270.43 208.868 267.972 211.13C266.92 212.054 265.608 212.613 264.225 212.723C262.842 212.834 261.461 212.491 260.282 211.745C257.659 210.008 257.288 206.975 257.306 204.07C257.333 200.422 257.043 197.08 255.906 193.582C253.55 186.327 249.188 179.961 245.878 173.144Z" fill="#192534"/>
<path d="M247.43 237.195C262.962 245.244 278.584 253.352 292.483 264.068C295.695 266.54 298.817 269.157 302.212 271.364C311.941 277.685 324.011 280.763 331.519 289.701C333.098 291.575 334.436 293.682 336.256 295.305C337.836 296.631 339.601 297.707 341.493 298.497C347.524 301.218 354.055 302.588 360.647 302.515C362.373 302.492 364.149 302.36 365.701 301.603C369.881 299.532 370.831 293.987 371.255 289.258C371.397 287.658 371.429 285.77 370.197 284.776C369.533 284.242 368.654 284.105 367.82 283.973C354.255 281.784 341.738 275.108 330.404 267.178C319.069 259.248 308.68 249.991 297.502 241.833C293.572 238.965 289.548 236.233 285.525 233.502L272.504 224.664C265.617 219.99 258.363 215.174 250.138 214.294C249.67 214.211 249.19 214.244 248.737 214.39C248.015 214.677 247.613 215.443 247.261 216.146C244.848 220.952 241.908 225.316 238.95 229.767C237.367 232.147 237.189 232.763 239.918 234.035C242.376 235.184 244.981 235.928 247.43 237.195Z" fill="#FBBEBE"/>
<path d="M277.95 370C278.128 370 278.298 369.928 278.423 369.8C278.549 369.671 278.619 369.497 278.619 369.316C278.619 369.135 278.549 368.961 278.423 368.832C278.298 368.704 278.128 368.632 277.95 368.632C277.773 368.632 277.603 368.704 277.477 368.832C277.352 368.961 277.281 369.135 277.281 369.316C277.281 369.497 277.352 369.671 277.477 369.8C277.603 369.928 277.773 370 277.95 370Z" fill="black"/>
<path d="M282.83 188.425C306.394 188.425 325.497 168.896 325.497 144.807C325.497 120.718 306.394 101.189 282.83 101.189C259.266 101.189 240.164 120.718 240.164 144.807C240.164 168.896 259.266 188.425 282.83 188.425Z" fill="#FBBEBE"/>
<path d="M249.295 161.816C250.053 157.899 254.451 155.92 258.346 155.656C262.286 155.439 266.213 156.288 269.731 158.116C273.248 159.945 276.233 162.688 278.383 166.071C279.285 163.626 279.893 161.078 280.194 158.483L287.331 159.025C288.128 159.151 288.943 159.076 289.704 158.807C290.623 158.387 291.19 157.439 291.667 156.527C294.789 150.566 296.877 143.252 302.738 140.11V148.318C304.343 147.999 305.855 147.307 307.157 146.296C308.458 145.285 309.515 143.981 310.246 142.486C310.648 144.758 311.288 146.979 312.155 149.112C312.298 149.467 312.498 149.86 312.86 149.951C313.036 149.964 313.213 149.939 313.379 149.876C313.545 149.814 313.697 149.717 313.823 149.591C316.556 147.47 319.029 145.02 321.188 142.294L329.663 157.315C334.56 144.675 334.827 130.651 330.417 117.825C326.006 104.999 317.213 94.2317 305.656 87.5044C303.696 86.3503 301.652 85.3546 299.54 84.5266C294.022 82.4016 288.076 81.7221 282.192 81.3117C273.829 80.728 265.001 80.7508 257.659 84.8504C253.711 87.0529 250.432 90.2997 247.265 93.5648C242.983 97.9699 238.701 102.626 236.421 108.385C234.847 112.362 234.307 116.671 233.83 120.93C233.54 123.507 233.272 126.17 233.99 128.655C234.49 130.374 235.431 131.92 236.064 133.594C237.117 136.375 237.282 139.412 237.688 142.367C238.589 148.898 240.675 155.198 243.839 160.945C244.509 162.163 245.365 163.458 246.699 163.768C248.032 164.078 249.634 162.573 248.929 161.388" fill="#192534"/>
<path d="M249.295 161.816C250.053 157.899 254.451 155.92 258.346 155.656C262.286 155.439 266.213 156.288 269.731 158.116C273.248 159.945 276.233 162.688 278.383 166.071C279.285 163.626 279.893 161.078 280.194 158.483L287.331 159.025C288.128 159.151 288.943 159.076 289.704 158.807C290.623 158.387 291.19 157.439 291.667 156.527C294.789 150.566 296.877 143.252 302.738 140.11V148.318C304.343 147.999 305.855 147.307 307.157 146.296C308.458 145.285 309.515 143.981 310.246 142.486C310.648 144.758 311.288 146.979 312.155 149.112C312.298 149.467 312.498 149.86 312.86 149.951C313.036 149.964 313.213 149.939 313.379 149.876C313.545 149.814 313.697 149.717 313.823 149.591C316.556 147.47 319.029 145.02 321.188 142.294L329.663 157.315C334.56 144.675 334.827 130.651 330.417 117.825C326.006 104.999 317.213 94.2317 305.656 87.5044C303.696 86.3503 301.652 85.3546 299.54 84.5266C294.022 82.4016 288.076 81.7221 282.192 81.3117C273.829 80.728 265.001 80.7508 257.659 84.8504C253.711 87.0529 250.432 90.2997 247.265 93.5648C242.983 97.9699 238.701 102.626 236.421 108.385C234.847 112.362 234.307 116.671 233.83 120.93C233.54 123.507 233.272 126.17 233.99 128.655C234.49 130.374 235.431 131.92 236.064 133.594C237.117 136.375 237.282 139.412 237.688 142.367C238.589 148.898 240.675 155.198 243.839 160.945C244.509 162.163 245.365 163.458 246.699 163.768C248.032 164.078 249.634 162.573 248.929 161.388" stroke="black" stroke-miterlimit="10"/>
<path d="M200.325 203.678C202.047 208.517 206.374 211.8 210.478 214.791L221.184 222.598C224.029 224.673 226.951 226.826 228.802 229.853C226.095 230.902 224.859 234.459 225.747 237.277C226.635 240.096 229.182 242.116 231.956 243.028C234.731 243.94 237.675 243.908 240.57 243.739C243.893 243.552 247.372 243.142 250.116 241.213L244.089 237.419C242.501 236.411 240.677 234.806 241.257 232.995L247.613 232.932C248.282 232.932 249.009 232.9 249.54 232.476C250.071 232.051 250.254 231.399 250.477 230.779C251.422 228.271 253.035 226.084 255.134 224.466C257.233 222.848 259.733 221.863 262.351 221.622C263.921 221.504 265.728 221.572 266.812 220.378C267.517 219.584 267.668 218.444 267.793 217.381C268.03 215.357 268.262 213.277 267.869 211.294C267.477 209.31 266.344 207.34 264.524 206.506C263.185 205.885 261.638 205.945 260.174 205.744C253.443 204.832 248.777 198.594 245.164 192.716C241.551 186.838 237.675 180.335 231.234 178.146C229.222 177.531 227.137 177.204 225.038 177.175C220.394 176.979 215.612 177.366 211.383 179.336C203.501 183.007 197.256 195.069 200.325 203.678Z" fill="#A5A58D"/>
<path opacity="0.1" d="M329.703 149.198L321.228 134.177C319.07 136.904 316.597 139.354 313.863 141.474C313.738 141.601 313.587 141.7 313.421 141.763C313.254 141.826 313.077 141.852 312.9 141.838C312.539 141.747 312.338 141.355 312.195 140.999C311.328 138.865 310.688 136.643 310.286 134.369C309.556 135.865 308.499 137.17 307.198 138.182C305.896 139.194 304.384 139.886 302.779 140.206V131.998C296.917 135.149 294.847 142.463 291.707 148.414C291.23 149.326 290.663 150.261 289.744 150.694C288.983 150.964 288.168 151.039 287.371 150.913L280.234 150.37C279.933 152.965 279.325 155.513 278.423 157.958C276.273 154.576 273.288 151.832 269.771 150.004C266.253 148.175 262.326 147.327 258.386 147.543C254.492 147.808 250.093 149.787 249.335 153.704L248.956 153.275C249.674 154.465 248.064 155.97 246.725 155.66C245.387 155.35 244.535 154.055 243.866 152.837C240.71 147.084 238.633 140.779 237.742 134.246C237.336 131.291 237.171 128.254 236.118 125.472C235.485 123.798 234.543 122.253 234.044 120.533C234.044 120.474 234.013 120.419 233.999 120.36C233.959 120.702 233.919 121.044 233.883 121.386C233.593 123.967 233.326 126.626 234.044 129.138C234.543 130.858 235.485 132.403 236.118 134.072C237.171 136.859 237.336 139.891 237.742 142.851C238.632 149.383 240.709 155.687 243.866 161.438C244.535 162.655 245.392 163.955 246.725 164.265C248.059 164.575 249.661 163.07 248.956 161.88L249.335 162.304C250.093 158.392 254.492 156.408 258.386 156.148C262.326 155.93 266.253 156.777 269.771 158.605C273.289 160.433 276.273 163.176 278.423 166.559C279.326 164.116 279.934 161.569 280.234 158.975L287.371 159.513C288.168 159.641 288.983 159.566 289.744 159.295C290.663 158.875 291.23 157.927 291.707 157.014C294.83 151.05 296.917 143.74 302.779 140.598V148.806C304.384 148.487 305.896 147.794 307.198 146.782C308.499 145.77 309.556 144.465 310.286 142.969C310.689 145.243 311.329 147.466 312.195 149.6C312.338 149.951 312.539 150.348 312.9 150.434C313.076 150.449 313.254 150.425 313.421 150.363C313.587 150.301 313.738 150.202 313.863 150.074C316.597 147.955 319.07 145.505 321.228 142.778L329.703 157.799C332.76 149.828 334.018 141.255 333.383 132.718C332.973 138.369 331.733 143.925 329.703 149.198Z" fill="black"/>
</svg>
